<?xml version="1.0" standalone="no"?>
<!DOCTYPE svg PUBLIC "-//W3C//DTD SVG 20010904//EN"
        "http://www.w3.org/TR/2001/REC-SVG-20010904/DTD/svg10.dtd">
<svg version="1.0" xmlns="http://www.w3.org/2000/svg"
     width="159.000000pt" height="167.000000pt" viewBox="0 0 159.000000 167.000000"
     preserveAspectRatio="xMidYMid meet">

    <g transform="translate(0.000000,167.000000) scale(0.100000,-0.100000)"
       fill="#5e6ad2" stroke="none">
        <path d="M670 1445 c-213 -48 -394 -220 -444 -421 -20 -80 -21 -222 -1 -298
53 -202 220 -368 421 -420 79 -20 209 -20 288 0 77 20 184 76 239 125 l42 38
-102 102 -103 103 -22 -21 c-47 -43 -110 -68 -186 -71 -66 -4 -79 -1 -137 27
-112 56 -165 142 -165 270 1 112 59 203 165 259 41 21 63 26 125 25 81 0 127
-15 177 -57 l30 -25 102 103 103 103 -23 23 c-119 114 -341 173 -509 135z"/>
        <path d="M1154 1001 c-70 -42 -85 -162 -28 -222 53 -56 135 -59 198 -7 56 46
66 114 26 187 -30 57 -134 80 -196 42z"/>
    </g>
</svg>
